Simulation
nRows=19
nColumns=15
endheader
time  TH_x TH_y TH_z SC_y  SC_z  SC_x  AC_y  AC_z  AC_x  GH_y  GH_z  GH_yy  EL_x  PS_y
0.0  0.000000  0.000000  0.000000  -23.824293027471555  2.67852034649708  28.143421836801163  53.16038228433353  -14.805264447560937  -10.595691691421527  58.74163484647234  -4.213346980266047  -6.394044522709887  21.235989801375084  120.000000
0.02849999999999998  0.000000  0.000000  0.000000  -23.55065880101591  2.7472288441660413  25.476108630723733  53.34989840280806  -12.519093813755688  -9.220974333738603  59.19221432936412  -3.26646692237328  -7.307058730007131  21.11486911364986  120.000000
0.05699999999999996  0.000000  0.000000  0.000000  -23.324072792721413  2.777752016330518  22.926976718483132  53.49986492140127  -10.334990156045736  -7.862891044191494  59.63289718703672  -2.2407183082929607  -8.2167320615332  20.770125515384873  120.000000
0.08549999999999994  0.000000  0.000000  0.000000  -23.172750806513776  2.794466424337731  20.537296508915226  53.606249396018754  -8.242515390648972  -6.551441285130395  60.04611605184171  -1.0775794684063513  -9.130122286815235  20.277719431348604  120.000000
0.11399999999999992  0.000000  0.000000  0.000000  -23.097086876389902  2.8361363603071696  18.314533557334155  53.68462833237892  -6.22107561118066  -5.317882937376277  60.41227026747234  0.26260383828517714  -10.055347308465544  19.728098221199485  120.000000
0.1424999999999999  0.000000  0.000000  0.000000  -23.09076427287162  2.9121853859368927  16.26903349393152  53.73802259147813  -4.269070881566236  -4.179889491699234  60.703821956586175  1.7957440453431717  -11.007098177519584  19.185323187086777  120.000000
0.17099999999999987  0.000000  0.000000  0.000000  -23.145757060136418  3.0132602216274287  14.414200711693802  53.75766271489777  -2.387595552053093  -3.132665320267495  60.88946048453958  3.52083422120728  -12.00210610607867  18.686341732407257  120.000000
0.19949999999999987  0.000000  0.000000  0.000000  -23.24510186737312  3.1214770379116366  12.752567509043267  53.7527366174699  -0.583467424672333  -2.160061113990292  60.94520931224316  5.4345936967879975  -13.04965807938586  18.25166182788997  120.000000
0.22799999999999984  0.000000  0.000000  0.000000  -23.36938751533808  3.222325655550913  11.277277953150067  53.74536637061569  1.1308695092900252  -1.2485467421483338  60.854443441664095  7.526986802646846  -14.151955411726005  17.898404699774915  120.000000
0.25649999999999984  0.000000  0.000000  0.000000  -23.505544102201043  3.3086114389285872  9.979060435410139  53.7553424904949  2.7506265884354404  -0.39349128305801867  60.60705227057206  9.772618836738358  -15.305010160016614  17.636067595324118  120.000000
0.2849999999999998  0.000000  0.000000  0.000000  -23.646470487051708  3.380521687334641  8.849564482529702  53.79542504714755  4.279405646452442  0.406017301034766  60.20199150599221  12.13477880594888  -16.49668140656077  17.471178752492  120.000000
0.3134999999999998  0.000000  0.000000  0.000000  -23.790823101894393  3.4411346345171885  7.88207953381093  53.870460160772694  5.728029621681132  1.1485269476529167  59.64731575810982  14.571769044152557  -17.708660729533666  17.40412531830997  120.000000
0.34199999999999975  0.000000  0.000000  0.000000  -23.941992105141615  3.495879692117912  7.070340606095487  53.97976355357194  7.109587503630052  1.833426762712966  58.95956289479695  17.04556016602428  -18.920004071625378  17.429062549338354  120.000000
0.3704999999999997  0.000000  0.000000  0.000000  -24.106092897078774  3.547810890065596  6.407458911029123  54.11919524912464  8.43521047529535  2.4622755142643094  58.16225942223433  19.52592809092299  -20.111554512034935  17.531767733996656  120.000000
0.39899999999999974  0.000000  0.000000  0.000000  -24.28955262362202  3.597920387925875  5.884911917876588  54.28425388736738  9.711116222917614  3.039789308383082  57.283968629627026  21.991805399379395  -21.269122367171327  17.693125355800465  120.000000
0.4274999999999997  0.000000  0.000000  0.000000  -24.496301596295957  3.645126206802526  5.492855526186726  54.47188055086969  10.939580306006746  3.571911277093035  56.35543615543684  24.4281571025852  -22.384808372362937  17.892512566751588  120.000000
0.4559999999999997  0.000000  0.000000  0.000000  -24.728118814982764  3.6878389763170167  5.220748652514301  54.67951654758284  12.120162458769174  4.065064057488421  55.40525677480704  26.822072350767993  -23.457401030192518  18.112835432728925  120.000000
0.48449999999999965  0.000000  0.000000  0.000000  -24.98448577337767  3.7247531767692634  5.058279155524184  54.90380011748935  13.252165731719854  4.523684718576557  54.4569285348957  29.159042813747703  -24.489963822207542  18.343417829169304  120.000000
0.5129999999999997  0.000000  0.000000  0.000000  -25.263557175055258  3.7559075087642886  4.996027960611294  55.13902752211311  14.335493997730268  4.950067871623739  53.52706447745986  31.421240564871926  -25.486917643131708  18.581744352169125  120.000000
